<svg width="481" height="231" viewBox="0 0 481 231" fill="none" xmlns="http://www.w3.org/2000/svg">
<path d="M326.573 92.4L324.379 75.9733L338.638 73.92L340.831 90.3467L326.573 92.4Z" fill="#719CE6" fill-opacity="0.5"/>
<path d="M276.119 193.013L290.378 177.613L304.637 188.907L290.378 204.307L276.119 193.013Z" fill="#1A75CF" fill-opacity="0.5"/>
<path d="M389.091 103.693L405.543 96.5067L412.124 110.88L396.769 118.067L389.091 103.693Z" fill="#0053E2" fill-opacity="0.5"/>
<path d="M215.793 160.16L224.568 177.613L209.212 184.8L200.438 167.347L215.793 160.16Z" fill="#1A75CF" fill-opacity="0.5"/>
<path d="M425.286 55.44L435.158 49.28L441.738 59.5467L431.867 65.7067L425.286 55.44Z" fill="#0053E2" fill-opacity="0.5"/>
<path d="M130.241 59.5467L149.984 57.4933L152.178 74.9467L132.435 77L130.241 59.5467Z" fill="#1A75CF" fill-opacity="0.5"/>
<path d="M183.985 120.12L190.566 106.773L203.728 111.907L197.147 126.28L183.985 120.12Z" fill="#0053E2" fill-opacity="0.5"/>
<path d="M23.8496 56.4667L34.8178 53.3867L38.1083 62.6267L27.1401 65.7067L23.8496 56.4667Z" fill="#FDBB30" fill-opacity="0.6"/>
<path d="M440.642 210.467L418.706 216.627L414.318 202.253L436.255 196.093L440.642 210.467Z" fill="#0053E2" fill-opacity="0.5"/>
<path d="M253.086 84.1867L237.73 77L244.311 63.6533L259.667 70.84L253.086 84.1867Z" fill="#1A75CF" fill-opacity="0.5"/>
<path d="M112.693 194.04L95.1434 201.227L88.5625 185.827L106.112 178.64L112.693 194.04Z" fill="#0053E2" fill-opacity="0.5"/>
<path d="M369.349 41.0667L390.188 35.9333L395.672 52.36L374.833 57.4933L369.349 41.0667Z" fill="#FDBB30" fill-opacity="0.6"/>
<path d="M50.174 227.92H33.7217V209.44H50.174V227.92Z" fill="#719CE6" fill-opacity="0.5"/>
<path d="M75.4008 128.333L72.1104 118.067L81.9817 114.987L85.2722 125.253L75.4008 128.333Z" fill="#0053E2" fill-opacity="0.5"/>
<path d="M313.41 35.9333L318.894 17.4533L336.443 21.56L330.959 41.0667L313.41 35.9333Z" fill="#0053E2" fill-opacity="0.5"/>
<path d="M38.1084 0H57.8512V12.32H38.1084V0Z" fill="#0053E2" fill-opacity="0.5"/>
<path d="M257.473 132.44L272.828 120.12L279.409 128.333L264.054 140.653L257.473 132.44Z" fill="#0053E2" fill-opacity="0.5"/>
<path d="M455.997 103.693L474.643 114.987L464.772 128.333L446.126 117.04L455.997 103.693Z" fill="#719CE6" fill-opacity="0.5"/>
<path d="M28.2369 117.04L15.0751 125.253L8.49414 117.04L22.7528 107.8L28.2369 117.04Z" fill="#0053E2" fill-opacity="0.5"/>
<path d="M181.792 228.947L168.63 231L165.34 211.493L178.502 209.44L181.792 228.947Z" fill="#1A75CF" fill-opacity="0.5"/>
<path d="M281.603 143.733L283.796 156.053L266.247 158.107L264.054 145.787L281.603 143.733Z" fill="#1A75CF" fill-opacity="0.5"/>
<path d="M361.671 177.613V190.96H346.315V177.613H361.671Z" fill="#1A75CF" fill-opacity="0.5"/>
<path d="M50.1739 47.2267L34.8184 33.88L44.6898 23.6133L60.0453 35.9333L50.1739 47.2267Z" fill="#0053E2" fill-opacity="0.5"/>
<path d="M198.245 88.2933L182.889 98.56L170.824 81.1067L186.18 71.8667L198.245 88.2933Z" fill="#0053E2" fill-opacity="0.5"/>
<path d="M158.759 163.24L179.598 157.08L185.083 173.507L164.243 179.667L158.759 163.24Z" fill="#0053E2" fill-opacity="0.5"/>
<path d="M463.675 132.44L480.127 134.493L477.934 155.027L461.481 152.973L463.675 132.44Z" fill="#1A75CF" fill-opacity="0.5"/>
<path d="M71.013 117.04L61.1416 111.907L73.2066 94.4533L83.078 99.5867L71.013 117.04Z" fill="#719CE6" fill-opacity="0.5"/>
<path d="M99.5309 73.92L85.2722 82.1333L79.7881 73.92L94.0468 65.7067L99.5309 73.92Z" fill="#0053E2" fill-opacity="0.5"/>
<path d="M120.37 56.4667L112.692 48.2533L125.854 36.96L133.532 45.1733L120.37 56.4667Z" fill="#0053E2" fill-opacity="0.5"/>
<path d="M0.816406 124.227L21.656 121.147L23.8497 132.44L3.01005 134.493L0.816406 124.227Z" fill="#1A75CF" fill-opacity="0.5"/>
<path d="M113.789 145.787V161.187H92.9492V145.787H113.789Z" fill="#1A75CF" fill-opacity="0.5"/>
<path d="M408.833 146.813V161.187H390.188V146.813H408.833Z" fill="#0053E2" fill-opacity="0.5"/>
<path d="M280.506 198.147L285.99 178.64L298.055 181.72L292.571 201.227L280.506 198.147Z" fill="#0053E2" fill-opacity="0.5"/>
<path d="M238.827 40.04L259.667 42.0933L257.473 56.4667L236.634 54.4133L238.827 40.04Z" fill="#0053E2" fill-opacity="0.5"/>
<path d="M186.18 176.587H171.921V159.133H186.18V176.587Z" fill="#FDBB30" fill-opacity="0.6"/>
<g filter="url(#filter0_f_42_2)">
<path d="M215.214 56.7815C223.115 44.6466 240.885 44.6466 248.786 56.7815C252.275 62.1408 258.114 65.5118 264.5 65.8539C278.959 66.6287 287.844 82.0179 281.285 94.9275C278.389 100.629 278.389 107.371 281.285 113.072C287.844 125.982 278.959 141.371 264.5 142.146C258.114 142.488 252.275 145.859 248.786 151.219C240.885 163.353 223.115 163.353 215.214 151.219C211.725 145.859 205.886 142.488 199.5 142.146C185.041 141.371 176.156 125.982 182.715 113.072C185.611 107.371 185.611 100.629 182.715 94.9275C176.156 82.0179 185.041 66.6287 199.5 65.8539C205.886 65.5118 211.725 62.1408 215.214 56.7815Z" fill="url(#paint0_linear_42_2)"/>
</g>
<path d="M232.5 46L235.719 46.0843L238.928 46.3369L242.121 46.7572L245.287 47.3439L248.417 48.0956L251.505 49.01L254.54 50.0848L257.514 51.317L260.42 52.7031L263.25 54.2394L265.995 55.9218L268.649 57.7455L271.203 59.7055L273.652 61.7966L275.987 64.0129L278.203 66.3485L280.294 68.7968L282.255 71.3512L284.078 74.0047L285.761 76.75L287.297 79.5796L288.683 82.4857L289.915 85.4604L290.99 88.4955L291.904 91.5826L292.656 94.7134L293.243 97.8793L293.663 101.071L293.916 104.281L294 107.5L293.916 110.719L293.663 113.928L293.243 117.121L292.656 120.287L291.904 123.417L290.99 126.505L289.915 129.54L288.683 132.514L287.297 135.42L285.761 138.25L284.078 140.995L282.255 143.649L280.294 146.203L278.203 148.652L275.987 150.987L273.652 153.203L271.203 155.294L268.649 157.255L265.995 159.078L263.25 160.761L260.42 162.297L257.514 163.683L254.54 164.915L251.505 165.99L248.417 166.904L245.287 167.656L242.121 168.243L238.928 168.663L235.719 168.916L232.5 169L229.281 168.916L226.071 168.663L222.879 168.243L219.713 167.656L216.583 166.904L213.495 165.99L210.46 164.915L207.486 163.683L204.58 162.297L201.75 160.761L199.005 159.078L196.351 157.255L193.797 155.294L191.348 153.203L189.013 150.987L186.797 148.652L184.706 146.203L182.745 143.649L180.922 140.995L179.239 138.25L177.703 135.42L176.317 132.514L175.085 129.54L174.01 126.505L173.096 123.417L172.344 120.287L171.757 117.121L171.337 113.928L171.084 110.719L171 107.5L171.084 104.281L171.337 101.071L171.757 97.8793L172.344 94.7134L173.096 91.5826L174.01 88.4955L175.085 85.4604L176.317 82.4857L177.703 79.5796L179.239 76.75L180.922 74.0047L182.745 71.3512L184.706 68.7968L186.797 66.3485L189.013 64.0129L191.348 61.7966L193.797 59.7055L196.351 57.7455L199.005 55.9218L201.75 54.2394L204.58 52.7031L207.486 51.317L210.46 50.0848L213.495 49.01L216.583 48.0956L219.713 47.3439L222.879 46.7572L226.071 46.3369L229.281 46.0843L232.5 46Z" fill="url(#paint1_linear_42_2)" fill-opacity="0.2"/>
<path d="M232 52L234.878 52.0754L237.749 52.3013L240.604 52.6771L243.435 53.2019L246.235 53.8741L248.996 54.6919L251.71 55.6531L254.371 56.755L256.969 57.9946L259.5 59.3686L261.955 60.8731L264.328 62.5041L266.613 64.257L268.802 66.127L270.891 68.1091L272.873 70.1978L274.743 72.3874L276.496 74.6718L278.127 77.0449L279.631 79.5L281.005 82.0305L282.245 84.6295L283.347 87.2898L284.308 90.0041L285.126 92.765L285.798 95.5649L286.323 98.3961L286.699 101.251L286.925 104.122L287 107L286.925 109.878L286.699 112.749L286.323 115.604L285.798 118.435L285.126 121.235L284.308 123.996L283.347 126.71L282.245 129.371L281.005 131.969L279.631 134.5L278.127 136.955L276.496 139.328L274.743 141.613L272.873 143.802L270.891 145.891L268.802 147.873L266.613 149.743L264.328 151.496L261.955 153.127L259.5 154.631L256.969 156.005L254.371 157.245L251.71 158.347L248.996 159.308L246.235 160.126L243.435 160.798L240.604 161.323L237.749 161.699L234.878 161.925L232 162L229.122 161.925L226.251 161.699L223.396 161.323L220.565 160.798L217.765 160.126L215.004 159.308L212.29 158.347L209.629 157.245L207.031 156.005L204.5 154.631L202.045 153.127L199.672 151.496L197.387 149.743L195.198 147.873L193.109 145.891L191.127 143.802L189.257 141.613L187.504 139.328L185.873 136.955L184.369 134.5L182.995 131.969L181.755 129.371L180.653 126.71L179.692 123.996L178.874 121.235L178.202 118.435L177.677 115.604L177.301 112.749L177.075 109.878L177 107L177.075 104.122L177.301 101.251L177.677 98.3961L178.202 95.5649L178.874 92.765L179.692 90.0041L180.653 87.2898L181.755 84.6295L182.995 82.0305L184.369 79.5L185.873 77.0449L187.504 74.6718L189.257 72.3874L191.127 70.1978L193.109 68.1091L195.198 66.127L197.387 64.257L199.672 62.5041L202.045 60.8731L204.5 59.3686L207.031 57.9946L209.629 56.755L212.29 55.6531L215.004 54.6919L217.765 53.8741L220.565 53.2019L223.396 52.6771L226.251 52.3013L229.122 52.0754L232 52Z" fill="url(#paint2_linear_42_2)"/>
<path d="M207 110L223.5 125L288 67" stroke="#FDBB30" stroke-width="11" stroke-linecap="round"/>
<defs>
<filter id="filter0_f_42_2" x="140.52" y="7.68033" width="182.961" height="192.639" filterUnits="userSpaceOnUse" color-interpolation-filters="sRGB">
<feFlood flood-opacity="0" result="BackgroundImageFix"/>
<feBlend mode="normal" in="SourceGraphic" in2="BackgroundImageFix" result="shape"/>
<feGaussianBlur stdDeviation="20" result="effect1_foregroundBlur_42_2"/>
</filter>
<linearGradient id="paint0_linear_42_2" x1="182.5" y1="60.5" x2="305" y2="177" gradientUnits="userSpaceOnUse">
<stop stop-color="#0053E2"/>
<stop offset="0.298077" stop-color="#0053E2"/>
</linearGradient>
<linearGradient id="paint1_linear_42_2" x1="190.798" y1="70.8527" x2="294" y2="169" gradientUnits="userSpaceOnUse">
<stop stop-color="#1A75CF"/>
<stop offset="1" stop-color="#0053E2"/>
</linearGradient>
<linearGradient id="paint2_linear_42_2" x1="194.705" y1="74.226" x2="287" y2="162" gradientUnits="userSpaceOnUse">
<stop stop-color="#0053E2"/>
<stop offset="1" stop-color="#003591"/>
</linearGradient>
</defs>
</svg>
