<svg width="473" height="231" viewBox="0 0 473 231" fill="none" xmlns="http://www.w3.org/2000/svg">
<rect width="473" height="231" rx="9" fill="url(#paint0_linear_42_3)"/>
<circle cx="443" cy="29.4894" r="16.6272" fill="#222222" fill-opacity="0.28"/>
<g filter="url(#filter0_f_42_3)">
<path d="M208.393 75.4466C217.151 61.9953 236.849 61.9953 245.606 75.4466V75.4466C249.474 81.3872 255.946 85.1239 263.025 85.5032V85.5032C279.053 86.362 288.902 103.421 281.632 117.731V117.731C278.421 124.051 278.421 131.524 281.632 137.844V137.844C288.902 152.154 279.053 169.212 263.025 170.071V170.071C255.946 170.451 249.474 174.187 245.606 180.128V180.128C236.849 193.579 217.151 193.579 208.393 180.128V180.128C204.526 174.187 198.054 170.451 190.975 170.071V170.071C174.947 169.212 165.098 152.154 172.368 137.844V137.844C175.579 131.524 175.579 124.051 172.368 117.731V117.731C165.098 103.421 174.947 86.362 190.975 85.5032V85.5032C198.054 85.1239 204.526 81.3872 208.393 75.4466V75.4466Z" fill="url(#paint1_linear_42_3)"/>
</g>
<path d="M226.5 63.9164L230.067 64.0098L233.625 64.2898L237.164 64.7557L240.673 65.4061L244.144 66.2393L247.566 67.2529L250.93 68.4443L254.227 69.8101L257.449 71.3466L260.585 73.0496L263.628 74.9144L266.57 76.9359L269.401 79.1086L272.115 81.4265L274.704 83.8833L277.161 86.4722L279.479 89.1861L281.651 92.0176L283.673 94.959L285.538 98.0021L287.241 101.139L288.777 104.36L290.143 107.657L291.334 111.022L292.348 114.444L293.181 117.914L293.832 121.423L294.297 124.962L294.577 128.52L294.671 132.088L294.577 135.656L294.297 139.214L293.832 142.752L293.181 146.261L292.348 149.732L291.334 153.154L290.143 156.518L288.777 159.816L287.241 163.037L285.538 166.173L283.673 169.217L281.651 172.158L279.479 174.989L277.161 177.703L274.704 180.292L272.115 182.749L269.401 185.067L266.57 187.24L263.628 189.261L260.585 191.126L257.449 192.829L254.227 194.365L250.93 195.731L247.566 196.923L244.144 197.936L240.673 198.769L237.164 199.42L233.625 199.886L230.067 200.166L226.5 200.259L222.932 200.166L219.374 199.886L215.835 199.42L212.326 198.769L208.855 197.936L205.433 196.923L202.069 195.731L198.772 194.365L195.55 192.829L192.414 191.126L189.371 189.261L186.429 187.24L183.598 185.067L180.884 182.749L178.295 180.292L175.838 177.703L173.52 174.989L171.348 172.158L169.326 169.217L167.461 166.173L165.758 163.037L164.222 159.816L162.856 156.518L161.665 153.154L160.651 149.732L159.818 146.261L159.167 142.752L158.702 139.214L158.422 135.656L158.328 132.088L158.422 128.52L158.702 124.962L159.167 121.423L159.818 117.914L160.651 114.444L161.665 111.022L162.856 107.657L164.222 104.36L165.758 101.139L167.461 98.0021L169.326 94.959L171.348 92.0176L173.52 89.1861L175.838 86.4722L178.295 83.8833L180.884 81.4265L183.598 79.1086L186.429 76.9359L189.371 74.9144L192.414 73.0496L195.55 71.3466L198.772 69.8101L202.069 68.4443L205.433 67.2529L208.855 66.2393L212.326 65.4061L215.835 64.7557L219.374 64.2898L222.932 64.0098L226.5 63.9164Z" fill="url(#paint2_linear_42_3)" fill-opacity="0.2"/>
<path d="M227 70.5071L230.191 70.5907L233.373 70.8411L236.538 71.2577L239.676 71.8394L242.78 72.5845L245.84 73.491L248.849 74.5565L251.798 75.7779L254.679 77.152L257.484 78.675L260.205 80.3428L262.836 82.1506L265.368 84.0937L267.795 86.1666L270.11 88.3637L272.307 90.679L274.38 93.1061L276.323 95.6383L278.131 98.2688L279.799 100.99L281.322 103.795L282.696 106.676L283.917 109.625L284.983 112.634L285.889 115.694L286.634 118.798L287.216 121.936L287.633 125.101L287.883 128.283L287.967 131.473L287.883 134.664L287.633 137.846L287.216 141.011L286.634 144.149L285.889 147.253L284.983 150.313L283.917 153.322L282.696 156.271L281.322 159.152L279.799 161.957L278.131 164.678L276.323 167.308L274.38 169.841L272.307 172.268L270.11 174.583L267.795 176.78L265.368 178.853L262.836 180.796L260.205 182.604L257.484 184.272L254.679 185.795L251.798 187.169L248.849 188.39L245.84 189.456L242.78 190.362L239.676 191.107L236.538 191.689L233.373 192.106L230.191 192.356L227 192.44L223.81 192.356L220.628 192.106L217.463 191.689L214.325 191.107L211.221 190.362L208.161 189.456L205.152 188.39L202.203 187.169L199.322 185.795L196.517 184.272L193.796 182.604L191.165 180.796L188.633 178.853L186.206 176.78L183.891 174.583L181.694 172.268L179.621 169.841L177.678 167.308L175.87 164.678L174.202 161.957L172.679 159.152L171.305 156.271L170.084 153.322L169.018 150.313L168.112 147.253L167.366 144.149L166.785 141.011L166.368 137.846L166.118 134.664L166.034 131.473L166.118 128.283L166.368 125.101L166.785 121.936L167.366 118.798L168.112 115.694L169.018 112.634L170.084 109.625L171.305 106.676L172.679 103.795L174.202 100.99L175.87 98.2688L177.678 95.6383L179.621 93.1061L181.694 90.679L183.891 88.3637L186.206 86.1666L188.633 84.0937L191.165 82.1506L193.796 80.3428L196.517 78.675L199.322 77.152L202.203 75.7779L205.152 74.5565L208.161 73.491L211.221 72.5845L214.325 71.8394L217.463 71.2577L220.628 70.8411L223.81 70.5907L227 70.5071Z" fill="url(#paint3_linear_42_3)" stroke="url(#paint4_linear_42_3)" stroke-width="2" stroke-miterlimit="1.34563"/>
<path d="M206 157.277L227.5 130.859M249 104.441L227.5 130.859M227.5 130.859L249 157.277M227.5 130.859L206 104.441" stroke="white" stroke-width="11" stroke-linecap="round"/>
<defs>
<filter id="filter0_f_42_3" x="129.936" y="25.3581" width="194.129" height="204.858" filterUnits="userSpaceOnUse" color-interpolation-filters="sRGB">
<feFlood flood-opacity="0" result="BackgroundImageFix"/>
<feBlend mode="normal" in="SourceGraphic" in2="BackgroundImageFix" result="shape"/>
<feGaussianBlur stdDeviation="20" result="effect1_foregroundBlur_42_3"/>
</filter>
<linearGradient id="paint0_linear_42_3" x1="236.5" y1="0" x2="236.5" y2="231" gradientUnits="userSpaceOnUse">
<stop stop-color="#2D0A11"/>
<stop offset="1" stop-color="#932138"/>
</linearGradient>
<linearGradient id="paint1_linear_42_3" x1="172.13" y1="79.5684" x2="307.919" y2="208.706" gradientUnits="userSpaceOnUse">
<stop stop-color="#EE2E2E"/>
<stop offset="0.298077" stop-color="#790A00"/>
</linearGradient>
<linearGradient id="paint2_linear_42_3" x1="180.274" y1="91.4651" x2="294.671" y2="200.259" gradientUnits="userSpaceOnUse">
<stop stop-color="#F41C00"/>
<stop offset="1" stop-color="#210917"/>
</linearGradient>
<linearGradient id="paint3_linear_42_3" x1="185.66" y1="95.1442" x2="287.967" y2="192.44" gradientUnits="userSpaceOnUse">
<stop stop-color="#AB372B"/>
<stop offset="1" stop-color="#7D1A2E"/>
</linearGradient>
<linearGradient id="paint4_linear_42_3" x1="182.107" y1="92.1224" x2="207.602" y2="119.28" gradientUnits="userSpaceOnUse">
<stop stop-color="#F2847D"/>
<stop offset="1" stop-color="#8C4C48" stop-opacity="0"/>
</linearGradient>
</defs>
</svg>
