<svg width="29" height="33" viewBox="0 0 29 33" fill="none" xmlns="http://www.w3.org/2000/svg">
<path d="M14.385 10.7837C15.1311 10.7837 15.7778 10.3861 15.828 9.89788L16.5741 1.49215C16.5741 0.645674 15.5898 0 14.385 0C13.1419 0 12.196 0.696857 12.196 1.49215L12.9421 9.89788C12.9913 10.3949 13.639 10.7837 14.385 10.7837ZM9.80817 13.4215C10.2058 12.7749 10.1566 12.0288 9.75896 11.7306L2.84444 6.90565C2.14757 6.508 1.05307 7.00413 0.456596 8.04942C-0.139873 9.09472 -0.0404658 10.2876 0.655415 10.6853L8.31602 14.2681C8.81308 14.4177 9.45973 14.0692 9.80817 13.4215ZM18.9127 13.4206C19.3103 14.0672 19.956 14.4048 20.4049 14.208L28.0655 10.6252C28.7623 10.2276 28.9119 9.03366 28.2643 7.98935C27.6678 6.94602 26.5733 6.44701 25.8764 6.84564L18.9619 11.6705C18.5643 12.019 18.5141 12.7651 18.9127 13.4127M14.385 21.2701C15.1311 21.2701 15.7778 21.6678 15.828 22.156L16.5741 30.5617C16.5741 31.4081 15.5898 32.0539 14.385 32.0539C13.1419 32.0539 12.196 31.357 12.196 30.5617L12.9421 22.156C12.9913 21.6589 13.639 21.2701 14.385 21.2701ZM18.9127 18.6421C19.3103 17.9955 19.956 17.6579 20.4049 17.8547L28.0655 21.3863C28.7623 21.784 28.9119 22.9779 28.2643 24.0222C27.6678 25.0655 26.5733 25.5645 25.8764 25.1659L18.9619 20.341C18.5643 20.0428 18.5141 19.2977 18.9127 18.65M9.80817 18.652C10.2058 19.2987 10.1566 20.0448 9.75896 20.343L2.84444 25.1679C2.14757 25.5655 1.05307 25.0695 0.456596 24.0242C-0.139873 22.9789 -0.0404658 21.7859 0.655415 21.3883L8.31602 17.8567C8.81308 17.6579 9.45973 18.0063 9.80817 18.6441" fill="#FDBB30"/>
</svg>
