<svg width="19" height="296" viewBox="0 0 19 296" fill="none" xmlns="http://www.w3.org/2000/svg">
<circle cx="9.08333" cy="9.08333" r="9.08333" fill="#36B581" fill-opacity="0.61"/>
<path d="M9 18V48M9 64.9907V95.5M9 112.481V143M9 159.595V190M9 207.086V237M9 254.5V280" stroke="#36B581" stroke-opacity="0.61" stroke-width="5"/>
<circle cx="9.08333" cy="56.25" r="9.08333" fill="#36B581" fill-opacity="0.61"/>
<circle cx="9.08333" cy="103.417" r="9.08333" fill="#36B581" fill-opacity="0.61"/>
<circle cx="9.08333" cy="151.083" r="9.08333" fill="#36B581" fill-opacity="0.61"/>
<circle cx="9.08333" cy="198.25" r="9.08333" fill="#36B581" fill-opacity="0.61"/>
<circle cx="9.08333" cy="245.417" r="9.08333" fill="#36B581" fill-opacity="0.61"/>
<circle cx="9.08333" cy="288.583" r="9.08333" fill="#36B581" fill-opacity="0.61"/>
<path d="M7.396 6.40002V4.98102H10.047V13H8.463V6.40002H7.396Z" fill="#278E64" fill-opacity="0.99"/>
<path d="M7.06689 58.262C7.77089 57.6753 8.33189 57.1877 8.74989 56.799C9.16789 56.403 9.51622 55.9923 9.79489 55.567C10.0736 55.1417 10.2129 54.7237 10.2129 54.313C10.2129 53.939 10.1249 53.6457 9.94889 53.433C9.77289 53.2203 9.50155 53.114 9.13489 53.114C8.76822 53.114 8.48589 53.2387 8.28789 53.488C8.08989 53.73 7.98722 54.0637 7.97989 54.489H6.48389C6.51322 53.609 6.77355 52.9417 7.26489 52.487C7.76355 52.0323 8.39422 51.805 9.15689 51.805C9.99289 51.805 10.6346 52.0287 11.0819 52.476C11.5292 52.916 11.7529 53.499 11.7529 54.225C11.7529 54.797 11.5989 55.3433 11.2909 55.864C10.9829 56.3847 10.6309 56.8393 10.2349 57.228C9.83889 57.6093 9.32189 58.0713 8.68389 58.614H11.9289V59.89H6.49489V58.746L7.06689 58.262Z" fill="#278E64" fill-opacity="0.99"/>
<path d="M6.60512 101.093C6.64178 100.36 6.89845 99.795 7.37512 99.399C7.85912 98.9957 8.49345 98.794 9.27812 98.794C9.81345 98.794 10.2718 98.8893 10.6531 99.08C11.0345 99.2633 11.3205 99.5163 11.5111 99.839C11.7091 100.154 11.8081 100.514 11.8081 100.917C11.8081 101.379 11.6871 101.771 11.4451 102.094C11.2105 102.409 10.9281 102.622 10.5981 102.732V102.776C11.0235 102.908 11.3535 103.143 11.5881 103.48C11.8301 103.817 11.9511 104.25 11.9511 104.778C11.9511 105.218 11.8485 105.61 11.6431 105.955C11.4451 106.3 11.1481 106.571 10.7521 106.769C10.3635 106.96 9.89412 107.055 9.34412 107.055C8.51545 107.055 7.84078 106.846 7.32012 106.428C6.79945 106.01 6.52445 105.394 6.49512 104.58H7.99112C8.00578 104.939 8.12678 105.229 8.35412 105.449C8.58878 105.662 8.90778 105.768 9.31112 105.768C9.68512 105.768 9.97112 105.665 10.1691 105.46C10.3745 105.247 10.4771 104.976 10.4771 104.646C10.4771 104.206 10.3378 103.891 10.0591 103.7C9.78045 103.509 9.34778 103.414 8.76112 103.414H8.44212V102.149H8.76112C9.80245 102.149 10.3231 101.801 10.3231 101.104C10.3231 100.789 10.2278 100.543 10.0371 100.367C9.85378 100.191 9.58612 100.103 9.23412 100.103C8.88945 100.103 8.62178 100.198 8.43112 100.389C8.24778 100.572 8.14145 100.807 8.11212 101.093H6.60512Z" fill="#278E64" fill-opacity="0.99"/>
<path d="M5.51709 153.438V152.228L9.11409 147.08H10.9071V152.096H11.8751V153.438H10.9071V155H9.36709V153.438H5.51709ZM9.46609 148.73L7.21109 152.096H9.46609V148.73Z" fill="#278E64" fill-opacity="0.99"/>
<path d="M10.9731 195.812H7.40914V197.693C7.56314 197.502 7.78314 197.348 8.06914 197.231C8.35514 197.106 8.65947 197.044 8.98214 197.044C9.56881 197.044 10.0491 197.172 10.4231 197.429C10.7971 197.686 11.0685 198.016 11.2371 198.419C11.4058 198.815 11.4901 199.24 11.4901 199.695C11.4901 200.538 11.2481 201.217 10.7641 201.73C10.2875 202.243 9.60547 202.5 8.71814 202.5C7.88214 202.5 7.21481 202.291 6.71614 201.873C6.21747 201.455 5.93514 200.909 5.86914 200.234H7.36514C7.43114 200.527 7.57781 200.762 7.80514 200.938C8.03981 201.114 8.33681 201.202 8.69614 201.202C9.12881 201.202 9.45514 201.066 9.67514 200.795C9.89514 200.524 10.0051 200.164 10.0051 199.717C10.0051 199.262 9.89147 198.918 9.66414 198.683C9.44414 198.441 9.11781 198.32 8.68514 198.32C8.37714 198.32 8.12047 198.397 7.91514 198.551C7.70981 198.705 7.56314 198.91 7.47514 199.167H6.00114V194.459H10.9731V195.812Z" fill="#278E64" fill-opacity="0.99"/>
<path d="M10.7408 243.483C10.6675 243.175 10.5391 242.944 10.3558 242.79C10.1798 242.636 9.92312 242.559 9.58579 242.559C9.07979 242.559 8.70579 242.764 8.46379 243.175C8.22912 243.578 8.10812 244.238 8.10079 245.155C8.27679 244.862 8.53346 244.634 8.87079 244.473C9.20812 244.304 9.57479 244.22 9.97079 244.22C10.4475 244.22 10.8691 244.323 11.2358 244.528C11.6025 244.733 11.8885 245.034 12.0938 245.43C12.2991 245.819 12.4018 246.288 12.4018 246.838C12.4018 247.359 12.2955 247.824 12.0828 248.235C11.8775 248.638 11.5731 248.954 11.1698 249.181C10.7665 249.408 10.2861 249.522 9.72879 249.522C8.96612 249.522 8.36479 249.353 7.92479 249.016C7.49212 248.679 7.18779 248.209 7.01179 247.608C6.84312 246.999 6.75879 246.251 6.75879 245.364C6.75879 244.022 6.98979 243.01 7.45179 242.328C7.91379 241.639 8.64346 241.294 9.64079 241.294C10.4108 241.294 11.0085 241.503 11.4338 241.921C11.8591 242.339 12.1048 242.86 12.1708 243.483H10.7408ZM9.61879 245.485C9.23012 245.485 8.90379 245.599 8.63979 245.826C8.37579 246.053 8.24379 246.383 8.24379 246.816C8.24379 247.249 8.36479 247.59 8.60679 247.839C8.85612 248.088 9.20446 248.213 9.65179 248.213C10.0478 248.213 10.3595 248.092 10.5868 247.85C10.8215 247.608 10.9388 247.282 10.9388 246.871C10.9388 246.446 10.8251 246.108 10.5978 245.859C10.3778 245.61 10.0515 245.485 9.61879 245.485Z" fill="#278E64" fill-opacity="0.99"/>
<path d="M11.6868 286.647L8.76077 293.5H7.19877L10.1468 286.823H6.38477V285.503H11.6868V286.647Z" fill="#278E64" fill-opacity="0.99"/>
</svg>
